{
    "asset": {
        "version": "2.0",
        "generator": "Open Asset Import Library (assimp v5.0.0)"
    },
    "accessors": [
        {
            "bufferView": 0,
            "byteOffset": 0,
            "componentType": 5126,
            "count": 84,
            "type": "VEC3",
            "max": [
                0.125,
                0.125,
                0.125
            ],
            "min": [
                -0.5,
                -0.0,
                -0.125
            ]
        },
        {
            "bufferView": 1,
            "byteOffset": 0,
            "componentType": 5126,
            "count": 84,
            "type": "VEC3",
            "max": [
                0.5773503184318543,
                0.904534101486206,
                0.577350378036499
            ],
            "min": [
                -0.904534101486206,
                -0.5773503184318543,
                -0.577350378036499
            ]
        },
        {
            "bufferView": 2,
            "byteOffset": 0,
            "componentType": 5126,
            "count": 84,
            "type": "VEC2",
            "max": [
                1.0,
                0.6666669845581055
            ],
            "min": [
                0.0,
                0.0
            ]
        },
        {
            "bufferView": 3,
            "byteOffset": 0,
            "componentType": 5126,
            "count": 84,
            "type": "VEC4",
            "max": [
                1.0,
                1.0,
                1.0,
                1.0
            ],
            "min": [
                1.0,
                1.0,
                1.0,
                1.0
            ]
        },
        {
            "bufferView": 4,
            "byteOffset": 0,
            "componentType": 5125,
            "count": 84,
            "type": "SCALAR",
            "max": [
                41.0
            ],
            "min": [
                0.0
            ]
        }
    ],
    "buffers": [
        {
            "byteLength": 4368,
            "uri": "shape-8.bin"
        }
    ],
    "bufferViews": [
        {
            "buffer": 0,
            "byteOffset": 0,
            "byteLength": 1008,
            "target": 34962
        },
        {
            "buffer": 0,
            "byteOffset": 1008,
            "byteLength": 1008,
            "target": 34962
        },
        {
            "buffer": 0,
            "byteOffset": 2016,
            "byteLength": 672,
            "target": 34962
        },
        {
            "buffer": 0,
            "byteOffset": 2688,
            "byteLength": 1344,
            "target": 34962
        },
        {
            "buffer": 0,
            "byteOffset": 4032,
            "byteLength": 336,
            "target": 34963
        }
    ],
    "materials": [
        {
            "name": "material_0_material",
            "pbrMetallicRoughness": {
                "metallicFactor": 0.0
            }
        }
    ],
    "meshes": [
        {
            "name": "defaultobject",
            "primitives": [
                {
                    "mode": 4,
                    "material": 0,
                    "indices": 4,
                    "attributes": {
                        "POSITION": 0,
                        "NORMAL": 1,
                        "TEXCOORD_0": 2,
                        "COLOR_0": 3
                    }
                }
            ]
        }
    ],
    "nodes": [
        {
            "name": "defaultobject",
            "mesh": 0
        }
    ],
    "scenes": [
        {
            "nodes": [
                0
            ]
        }
    ],
    "scene": 0
}