{
    "asset": {
        "version": "2.0",
        "generator": "Open Asset Import Library (assimp v5.0.0)"
    },
    "accessors": [
        {
            "bufferView": 0,
            "byteOffset": 0,
            "componentType": 5126,
            "count": 4128,
            "type": "VEC3",
            "max": [
                0.5,
                0.125,
                0.5
            ],
            "min": [
                -0.125,
                0.0,
                -0.125
            ]
        },
        {
            "bufferView": 1,
            "byteOffset": 0,
            "componentType": 5126,
            "count": 4128,
            "type": "VEC3",
            "max": [
                1.0,
                1.0,
                1.0
            ],
            "min": [
                -1.0,
                -0.03206268325448036,
                -1.0
            ]
        },
        {
            "bufferView": 2,
            "byteOffset": 0,
            "componentType": 5126,
            "count": 4128,
            "type": "VEC2",
            "max": [
                0.9860140085220337,
                1.0
            ],
            "min": [
                0.08391600102186203,
                0.30069899559020998
            ]
        },
        {
            "bufferView": 3,
            "byteOffset": 0,
            "componentType": 5126,
            "count": 4128,
            "type": "VEC4",
            "max": [
                1.0,
                1.0,
                1.0,
                1.0
            ],
            "min": [
                1.0,
                1.0,
                1.0,
                1.0
            ]
        },
        {
            "bufferView": 4,
            "byteOffset": 0,
            "componentType": 5125,
            "count": 4128,
            "type": "SCALAR",
            "max": [
                2063.0
            ],
            "min": [
                0.0
            ]
        }
    ],
    "buffers": [
        {
            "byteLength": 214656,
            "uri": "shape-6.bin"
        }
    ],
    "bufferViews": [
        {
            "buffer": 0,
            "byteOffset": 0,
            "byteLength": 49536,
            "target": 34962
        },
        {
            "buffer": 0,
            "byteOffset": 49536,
            "byteLength": 49536,
            "target": 34962
        },
        {
            "buffer": 0,
            "byteOffset": 99072,
            "byteLength": 33024,
            "target": 34962
        },
        {
            "buffer": 0,
            "byteOffset": 132096,
            "byteLength": 66048,
            "target": 34962
        },
        {
            "buffer": 0,
            "byteOffset": 198144,
            "byteLength": 16512,
            "target": 34963
        }
    ],
    "materials": [
        {
            "name": "material_0_material",
            "pbrMetallicRoughness": {
                "metallicFactor": 0.0
            }
        }
    ],
    "meshes": [
        {
            "name": "defaultobject",
            "primitives": [
                {
                    "mode": 4,
                    "material": 0,
                    "indices": 4,
                    "attributes": {
                        "POSITION": 0,
                        "NORMAL": 1,
                        "TEXCOORD_0": 2,
                        "COLOR_0": 3
                    }
                }
            ]
        }
    ],
    "nodes": [
        {
            "name": "defaultobject",
            "mesh": 0
        }
    ],
    "scenes": [
        {
            "nodes": [
                0
            ]
        }
    ],
    "scene": 0
}