{
    "asset": {
        "version": "2.0",
        "generator": "Open Asset Import Library (assimp v5.0.0)"
    },
    "accessors": [
        {
            "bufferView": 0,
            "byteOffset": 0,
            "componentType": 5126,
            "count": 4260,
            "type": "VEC3",
            "max": [
                0.5,
                0.125,
                0.125
            ],
            "min": [
                -0.5,
                0.0,
                -0.125
            ]
        },
        {
            "bufferView": 1,
            "byteOffset": 0,
            "componentType": 5126,
            "count": 4260,
            "type": "VEC3",
            "max": [
                1.0,
                1.0,
                1.0
            ],
            "min": [
                -1.0,
                -3.0454646093858175e-7,
                -1.0
            ]
        },
        {
            "bufferView": 2,
            "byteOffset": 0,
            "componentType": 5126,
            "count": 4260,
            "type": "VEC2",
            "max": [
                1.0,
                0.9851850271224976
            ],
            "min": [
                0.0,
                0.1703699827194214
            ]
        },
        {
            "bufferView": 3,
            "byteOffset": 0,
            "componentType": 5126,
            "count": 4260,
            "type": "VEC4",
            "max": [
                1.0,
                1.0,
                1.0,
                1.0
            ],
            "min": [
                1.0,
                1.0,
                1.0,
                1.0
            ]
        },
        {
            "bufferView": 4,
            "byteOffset": 0,
            "componentType": 5125,
            "count": 4260,
            "type": "SCALAR",
            "max": [
                2129.0
            ],
            "min": [
                0.0
            ]
        }
    ],
    "buffers": [
        {
            "byteLength": 221520,
            "uri": "shape-12.bin"
        }
    ],
    "bufferViews": [
        {
            "buffer": 0,
            "byteOffset": 0,
            "byteLength": 51120,
            "target": 34962
        },
        {
            "buffer": 0,
            "byteOffset": 51120,
            "byteLength": 51120,
            "target": 34962
        },
        {
            "buffer": 0,
            "byteOffset": 102240,
            "byteLength": 34080,
            "target": 34962
        },
        {
            "buffer": 0,
            "byteOffset": 136320,
            "byteLength": 68160,
            "target": 34962
        },
        {
            "buffer": 0,
            "byteOffset": 204480,
            "byteLength": 17040,
            "target": 34963
        }
    ],
    "materials": [
        {
            "name": "material_0_material",
            "pbrMetallicRoughness": {
                "metallicFactor": 0.0
            }
        }
    ],
    "meshes": [
        {
            "name": "defaultobject",
            "primitives": [
                {
                    "mode": 4,
                    "material": 0,
                    "indices": 4,
                    "attributes": {
                        "POSITION": 0,
                        "NORMAL": 1,
                        "TEXCOORD_0": 2,
                        "COLOR_0": 3
                    }
                }
            ]
        }
    ],
    "nodes": [
        {
            "name": "defaultobject",
            "mesh": 0
        }
    ],
    "scenes": [
        {
            "nodes": [
                0
            ]
        }
    ],
    "scene": 0
}