{
    "asset": {
        "version": "2.0",
        "generator": "Open Asset Import Library (assimp v5.0.0)"
    },
    "accessors": [
        {
            "bufferView": 0,
            "byteOffset": 0,
            "componentType": 5126,
            "count": 2820,
            "type": "VEC3",
            "max": [
                0.5,
                0.125,
                0.125
            ],
            "min": [
                -0.09999900311231613,
                0.0,
                -0.125
            ]
        },
        {
            "bufferView": 1,
            "byteOffset": 0,
            "componentType": 5126,
            "count": 2820,
            "type": "VEC3",
            "max": [
                1.0,
                1.0,
                1.0
            ],
            "min": [
                -1.0,
                -0.019573282450437547,
                -1.0
            ]
        },
        {
            "bufferView": 2,
            "byteOffset": 0,
            "componentType": 5126,
            "count": 2820,
            "type": "VEC2",
            "max": [
                1.0,
                0.991802990436554
            ],
            "min": [
                0.0,
                0.3934429883956909
            ]
        },
        {
            "bufferView": 3,
            "byteOffset": 0,
            "componentType": 5126,
            "count": 2820,
            "type": "VEC4",
            "max": [
                1.0,
                1.0,
                1.0,
                1.0
            ],
            "min": [
                1.0,
                1.0,
                1.0,
                1.0
            ]
        },
        {
            "bufferView": 4,
            "byteOffset": 0,
            "componentType": 5125,
            "count": 2820,
            "type": "SCALAR",
            "max": [
                1409.0
            ],
            "min": [
                0.0
            ]
        }
    ],
    "buffers": [
        {
            "byteLength": 146640,
            "uri": "shape-4.bin"
        }
    ],
    "bufferViews": [
        {
            "buffer": 0,
            "byteOffset": 0,
            "byteLength": 33840,
            "target": 34962
        },
        {
            "buffer": 0,
            "byteOffset": 33840,
            "byteLength": 33840,
            "target": 34962
        },
        {
            "buffer": 0,
            "byteOffset": 67680,
            "byteLength": 22560,
            "target": 34962
        },
        {
            "buffer": 0,
            "byteOffset": 90240,
            "byteLength": 45120,
            "target": 34962
        },
        {
            "buffer": 0,
            "byteOffset": 135360,
            "byteLength": 11280,
            "target": 34963
        }
    ],
    "materials": [
        {
            "name": "material_0_material",
            "pbrMetallicRoughness": {
                "metallicFactor": 0.0
            }
        }
    ],
    "meshes": [
        {
            "name": "defaultobject",
            "primitives": [
                {
                    "mode": 4,
                    "material": 0,
                    "indices": 4,
                    "attributes": {
                        "POSITION": 0,
                        "NORMAL": 1,
                        "TEXCOORD_0": 2,
                        "COLOR_0": 3
                    }
                }
            ]
        }
    ],
    "nodes": [
        {
            "name": "defaultobject",
            "mesh": 0
        }
    ],
    "scenes": [
        {
            "nodes": [
                0
            ]
        }
    ],
    "scene": 0
}